<?xml version="1.0" standalone="no"?>
<!DOCTYPE svg PUBLIC "-//W3C//DTD SVG 20010904//EN"
 "http://www.w3.org/TR/2001/REC-SVG-20010904/DTD/svg10.dtd">
<svg version="1.0" xmlns="http://www.w3.org/2000/svg"
 width="500.000000pt" height="500.000000pt" viewBox="0 0 500.000000 500.000000"
 preserveAspectRatio="xMidYMid meet">
<metadata>
Created by potrace 1.14, written by Peter Selinger 2001-2017
</metadata>
<g transform="translate(0.000000,500.000000) scale(0.100000,-0.100000)"
fill="#000000" stroke="none">
<path d="M50 4314 c0 -377 3 -683 7 -681 5 3 17 1 28 -3 19 -7 18 -8 -7 -20
l-28 -13 0 -109 0 -108 150 0 150 0 0 111 c0 65 -4 108 -9 104 -5 -3 -12 -1
-16 5 -3 5 1 10 9 10 13 0 16 15 16 85 0 81 -1 85 -22 85 l-22 0 22 16 c20 14
22 23 22 119 0 105 -5 139 -20 130 -5 -3 -4 -19 0 -37 11 -35 3 -52 -22 -54
-22 -2 -22 -4 -2 34 11 24 13 36 4 52 -11 21 -8 24 23 21 9 -1 17 4 17 12 0 8
12 18 26 21 18 5 24 12 20 22 -3 9 -9 28 -12 42 -6 23 -4 25 7 14 8 -7 14 -18
15 -25 0 -7 2 -21 2 -32 2 -19 9 -21 72 -21 62 0 70 2 70 19 0 18 2 17 18 -4
22 -26 56 -21 45 7 -4 12 -3 15 5 10 7 -4 12 -14 12 -22 0 -11 22 -14 115 -14
63 0 116 3 116 8 1 4 2 62 3 129 l2 123 -26 0 c-14 0 -61 0 -106 0 -44 1 -85
0 -90 -1 -5 -1 -13 0 -19 1 -5 1 -64 1 -130 1 -117 -1 -143 -9 -128 -36 4 -5
-5 1 -19 15 -14 14 -28 35 -32 48 -4 12 -11 22 -16 22 -5 0 -7 7 -4 15 4 9 15
13 30 11 l23 -5 3 157 3 157 268 -1 c177 0 267 4 267 11 1 5 1 64 2 130 l0
120 -28 0 c-22 0 -29 -6 -34 -25 -6 -24 -6 -25 -12 -3 -3 12 -1 24 6 27 6 2
-19 5 -56 5 -58 1 -71 -2 -94 -24 -15 -14 -31 -25 -35 -25 -13 0 -11 24 3 38
9 9 -52 12 -274 12 -220 0 -288 -3 -291 -12 -4 -10 -6 -10 -6 0 -1 6 -5 12
-11 12 -6 0 -10 -244 -10 -686z m275 646 c1 -10 -2 -17 -7 -14 -4 3 -8 15 -8
26 0 26 13 15 15 -12z m-65 -5 c-7 -8 -17 -12 -22 -9 -6 4 -5 10 3 15 22 14
33 10 19 -6z m350 -6 c-7 -11 -14 -18 -17 -15 -3 3 0 12 7 21 18 21 23 19 10
-6z m-463 -31 c-3 -8 -6 -5 -6 6 -1 11 2 17 5 13 3 -3 4 -12 1 -19z m413 2 c0
-5 -4 -10 -10 -10 -5 0 -10 5 -10 10 0 6 5 10 10 10 6 0 10 -4 10 -10z m-473
-22 c-3 -8 -6 -5 -6 6 -1 11 2 17 5 13 3 -3 4 -12 1 -19z m253 2 c0 -5 -7 -10
-16 -10 -8 0 -12 5 -9 10 3 6 10 10 16 10 5 0 9 -4 9 -10z m442 -32 c-7 -7
-12 -8 -12 -2 0 14 12 26 19 19 2 -3 -1 -11 -7 -17z m-597 -38 c3 -5 1 -10 -4
-10 -6 0 -11 5 -11 10 0 6 2 10 4 10 3 0 8 -4 11 -10z m17 -65 c3 -13 2 -22
-2 -20 -11 7 -20 45 -10 45 4 0 10 -11 12 -25z m170 -7 c-6 -6 -15 -8 -19 -4
-4 4 -1 11 7 16 19 12 27 3 12 -12z m-59 -94 c-3 -8 -7 -14 -10 -14 -3 0 -3 7
1 15 3 8 1 15 -4 15 -6 0 -10 5 -10 11 0 8 4 8 14 -1 8 -6 12 -18 9 -26z m-75
-20 c1 -14 -2 -23 -7 -20 -5 3 -11 0 -14 -7 -5 -15 -67 -22 -67 -8 0 6 14 18
30 28 17 9 30 21 30 25 0 21 26 5 28 -18z m-128 -35 c0 -11 4 -17 10 -14 5 3
7 0 5 -7 -3 -7 -17 -18 -30 -25 -20 -9 -25 -8 -25 2 0 7 -3 20 -6 29 -4 11 -1
16 10 16 9 0 16 7 16 16 0 8 5 12 10 9 6 -3 10 -15 10 -26z m190 23 c0 -11
-41 -44 -48 -38 -3 3 3 15 13 26 18 20 35 26 35 12z m36 -121 c-8 -13 -36 -15
-36 -3 0 4 5 13 12 20 14 14 34 0 24 -17z m-86 -16 c0 -8 -4 -15 -10 -15 -5 0
-10 7 -10 15 0 8 5 15 10 15 6 0 10 -7 10 -15z m-105 -45 c3 -5 1 -10 -4 -10
-6 0 -11 5 -11 10 0 6 2 10 4 10 3 0 8 -4 11 -10z m314 -159 c-16 -5 -33 15
-24 30 6 9 12 7 22 -7 9 -13 10 -20 2 -23z m-279 10 c0 -5 -6 -11 -12 -14 -18
-6 -39 3 -32 14 7 12 44 12 44 0z m110 -28 c0 -6 -4 -15 -10 -18 -5 -3 -10 1
-10 9 0 9 -7 16 -15 16 -15 0 -20 12 -9 23 9 8 44 -15 44 -30z m112 8 c-11 -9
-22 -26 -24 -39 l-3 -23 -23 21 c-20 19 -22 48 -2 35 5 -3 11 -1 15 5 4 6 10
8 15 5 4 -3 11 2 14 11 3 8 11 12 17 8 8 -5 5 -12 -9 -23z m365 -17 c-3 -3
-12 -4 -19 -1 -8 3 -5 6 6 6 11 1 17 -2 13 -5z m-642 -44 c3 -5 1 -10 -4 -10
-6 0 -11 5 -11 10 0 6 2 10 4 10 3 0 8 -4 11 -10z m362 -22 c-3 -7 -5 -2 -5
12 0 14 2 19 5 13 2 -7 2 -19 0 -25z m123 -48 c0 -5 -5 -10 -11 -10 -5 0 -7 5
-4 10 3 6 8 10 11 10 2 0 4 -4 4 -10z m-384 -32 c-16 -22 -16 -22 -16 -1 0 12
6 23 13 26 19 7 20 0 3 -25z m-36 -20 c-1 -28 -2 -30 -11 -15 -6 10 -8 25 -5
33 9 24 16 16 16 -18z m40 -18 c0 -5 -2 -10 -4 -10 -3 0 -8 5 -11 10 -3 6 -1
10 4 10 6 0 11 -4 11 -10z m22 -124 c-6 -20 -6 -20 -13 4 -4 14 -7 34 -8 45 0
18 1 17 13 -4 7 -13 11 -33 8 -45z m-55 -38 c-3 -8 -6 -5 -6 6 -1 11 2 17 5
13 3 -3 4 -12 1 -19z m-117 -33 c0 -8 -2 -15 -4 -15 -2 0 -6 7 -10 15 -3 8 -1
15 4 15 6 0 10 -7 10 -15z m190 1 c0 -3 -4 -8 -10 -11 -5 -3 -10 -1 -10 4 0 6
5 11 10 11 6 0 10 -2 10 -4z m-49 -105 c2 -8 -4 -17 -15 -19 -13 -3 -16 0 -10
9 4 8 7 32 7 54 l-2 40 8 -35 c5 -19 10 -41 12 -49z m16 -153 c-3 -8 -6 -5 -6
6 -1 11 2 17 5 13 3 -3 4 -12 1 -19z m-87 -3 c10 -13 9 -15 -8 -15 -16 0 -20
-5 -16 -17 5 -16 4 -16 -6 0 -12 19 -7 47 8 47 5 0 15 -7 22 -15z m165 -95 c3
-5 1 -10 -4 -10 -6 0 -11 5 -11 10 0 6 2 10 4 10 3 0 8 -4 11 -10z"/>
<path d="M80 4579 c0 -5 5 -7 10 -4 6 3 10 8 10 11 0 2 -4 4 -10 4 -5 0 -10
-5 -10 -11z"/>
<path d="M1613 4992 c-23 -2 -33 -9 -33 -20 0 -14 -2 -14 -9 -3 -22 35 -151
-43 -219 -131 -55 -73 -69 -104 -92 -200 -20 -87 -27 -155 -35 -325 -5 -98 -4
-103 15 -103 11 0 20 -4 20 -10 0 -9 -14 -14 -32 -11 -7 1 -2 -240 7 -309 18
-133 23 -165 41 -218 54 -161 176 -256 354 -274 41 -4 37 -19 40 177 2 178 3
173 -22 181 -40 12 -117 65 -137 93 -28 39 -36 103 -35 276 0 156 12 424 19
461 5 24 26 36 43 25 11 -7 15 -57 28 -326 6 -139 17 -169 58 -163 28 4 33 39
41 293 4 116 12 218 17 228 5 9 17 17 28 17 25 0 28 -15 35 -160 16 -348 19
-368 53 -381 52 -20 58 4 68 290 5 176 12 211 40 211 20 0 32 -35 33 -105 1
-33 3 -80 5 -105 8 -90 20 -377 19 -457 0 -102 -10 -119 -98 -168 l-67 -37 7
-66 c3 -38 12 -72 20 -78 11 -8 11 -12 0 -20 -10 -7 -11 -23 -2 -76 6 -38 14
-68 19 -68 5 0 4 -9 -3 -21 -10 -20 -9 -21 23 -14 18 3 57 16 86 27 46 18 52
24 50 46 -2 20 4 28 31 39 31 13 33 13 27 -4 -5 -13 0 -11 19 7 34 32 108 186
102 211 -3 11 -2 19 3 19 21 0 46 228 43 400 -1 74 -3 156 -3 182 -1 28 -6 47
-12 45 -6 -1 -13 4 -16 12 -3 10 0 12 12 8 13 -5 16 1 16 43 0 43 -3 49 -20
47 -11 -1 -20 -6 -20 -13 0 -7 -10 -9 -26 -6 -19 3 -25 1 -20 -7 5 -7 -2 -11
-18 -11 -14 0 -26 -4 -26 -8 0 -10 -44 -32 -62 -32 -7 0 10 21 36 47 31 30 50
42 55 35 11 -18 93 9 97 31 2 15 -3 18 -29 15 -24 -2 -33 1 -35 16 -3 11 0 16
7 12 6 -4 11 -2 11 3 0 6 9 11 20 11 11 0 20 6 20 13 0 35 -43 175 -65 213
-29 50 -69 95 -81 93 -23 -4 -35 2 -32 17 3 18 -56 53 -127 75 -38 12 -224 19
-292 11z m133 -97 c1 -8 -2 -13 -7 -9 -5 3 -9 12 -9 21 0 19 13 9 16 -12z
m-67 -16 c-16 -10 -23 -4 -14 10 3 6 11 8 17 5 6 -4 5 -9 -3 -15z m-156 -19
c-3 -11 -7 -20 -9 -20 -2 0 -4 9 -4 20 0 11 4 20 9 20 5 0 7 -9 4 -20z m447
-10 c0 -5 -4 -10 -10 -10 -5 0 -10 5 -10 10 0 6 5 10 10 10 6 0 10 -4 10 -10z
m-215 -19 c-3 -6 -11 -8 -17 -5 -6 4 -5 9 3 15 16 10 23 4 14 -10z m-415 -245
c0 -3 -4 -8 -10 -11 -5 -3 -10 -1 -10 4 0 6 5 11 10 11 6 0 10 -2 10 -4z m-4
-256 c22 0 24 -2 13 -21 -8 -17 -13 -19 -19 -9 -11 18 -36 21 -69 9 -24 -8
-23 -6 9 21 27 24 36 27 38 15 2 -8 14 -15 28 -15z m14 -65 c0 -17 -4 -18 -39
-8 -23 6 -23 7 -5 14 30 12 44 10 44 -6z m820 -39 c0 -11 -19 -15 -25 -6 -3 5
1 10 9 10 9 0 16 -2 16 -4z m-845 -185 c3 -5 1 -12 -5 -16 -5 -3 -10 1 -10 9
0 18 6 21 15 7z m720 -21 c3 -5 1 -10 -4 -10 -6 0 -11 5 -11 10 0 6 2 10 4 10
3 0 8 -4 11 -10z m-765 -151 c0 -6 -4 -7 -10 -4 -5 3 -10 11 -10 16 0 6 5 7
10 4 6 -3 10 -11 10 -16z m755 -29 c-3 -5 -11 -10 -16 -10 -6 0 -7 5 -4 10 3
6 11 10 16 10 6 0 7 -4 4 -10z m-601 -219 c4 -5 -1 -8 -9 -7 -21 3 -31 16 -12
16 9 0 18 -4 21 -9z m142 -13 c10 -13 12 -18 5 -11 -7 6 -20 9 -27 6 -14 -5
-19 8 -7 20 9 9 7 10 29 -15z m418 -20 c5 -24 3 -28 -14 -28 -11 0 -20 5 -20
10 0 6 4 10 9 10 4 0 6 12 3 28 -6 35 13 18 22 -20z m-471 21 c-18 -18 -63
-20 -56 -3 3 8 19 14 36 14 23 0 28 -3 20 -11z m37 -29 c0 -5 -2 -10 -4 -10
-3 0 -8 5 -11 10 -3 6 -1 10 4 10 6 0 11 -4 11 -10z m355 1 c3 -5 1 -12 -4
-15 -5 -3 -11 1 -15 9 -6 16 9 21 19 6z m20 -141 c-10 -11 -22 -17 -26 -14
-15 9 -10 22 9 27 33 9 35 7 17 -13z"/>
<path d="M2998 4993 c-21 -2 -38 -7 -38 -11 0 -4 -13 -8 -30 -9 -73 -5 -188
-100 -242 -200 -29 -53 -54 -137 -63 -213 -3 -25 -8 -63 -10 -85 -3 -22 -7
-92 -9 -156 -4 -111 -3 -116 15 -112 10 3 19 0 19 -6 0 -6 -8 -11 -18 -11 -17
0 -18 -10 -16 -128 1 -71 4 -146 8 -168 3 -21 8 -59 11 -84 30 -246 153 -393
350 -416 22 -3 46 -7 53 -9 6 -2 12 -1 13 3 0 4 2 34 3 67 2 33 7 101 11 151
7 90 7 91 -20 108 -94 61 -189 219 -218 362 -48 238 58 523 212 568 51 15 119
11 167 -9 88 -37 170 -153 200 -284 13 -57 12 -208 -1 -272 -28 -132 -109
-278 -195 -352 -41 -34 -41 -35 -38 -96 2 -41 7 -61 15 -61 7 0 13 -4 13 -10
0 -5 -5 -10 -11 -10 -7 0 -9 -25 -6 -77 3 -43 6 -79 6 -80 5 -16 123 12 181
42 25 13 29 19 20 30 -15 18 -7 31 30 43 32 12 38 5 18 -18 -7 -8 2 -1 20 15
40 36 116 187 109 215 -3 11 -2 20 2 20 9 0 30 103 39 195 4 39 6 135 4 215
-1 80 -2 159 -2 176 0 19 -6 34 -15 38 -19 7 -19 26 0 26 11 0 15 12 15 44 0
35 -3 44 -16 42 -8 -1 -19 -8 -24 -15 -5 -9 -10 -10 -14 -3 -4 6 -13 9 -21 6
-8 -4 -12 -11 -8 -17 4 -6 0 -8 -10 -4 -9 3 -22 0 -29 -7 -8 -7 -23 -18 -36
-25 -36 -19 -28 8 15 49 23 23 38 31 40 22 3 -6 8 -10 13 -7 5 3 23 7 40 9 54
6 64 46 11 46 -15 0 -31 3 -34 7 -9 9 24 32 47 33 16 0 18 5 12 39 -19 121
-97 274 -141 277 -53 4 -51 3 -35 14 13 9 11 13 -10 30 -25 19 -40 26 -115 50
-39 13 -213 20 -287 13z m126 -88 c3 -8 1 -15 -4 -15 -6 0 -10 7 -10 15 0 8 2
15 4 15 2 0 6 -7 10 -15z m-64 -20 c-7 -9 -15 -13 -17 -11 -7 7 7 26 19 26 6
0 6 -6 -2 -15z m327 -17 c-3 -8 -6 -5 -6 6 -1 11 2 17 5 13 3 -3 4 -12 1 -19z
m-484 -13 c-7 -21 -13 -19 -13 6 0 11 4 18 10 14 5 -3 7 -12 3 -20z m442 -5
c3 -5 1 -10 -4 -10 -6 0 -11 5 -11 10 0 6 2 10 4 10 3 0 8 -4 11 -10z m-210
-19 c-3 -6 -11 -8 -17 -5 -6 4 -5 9 3 15 16 10 23 4 14 -10z m-422 -224 c3 -8
2 -20 -3 -26 -5 -9 -7 -4 -7 13 0 29 2 32 10 13z m58 -220 c-8 -8 -14 -8 -22
0 -7 7 -5 16 8 28 17 18 18 18 21 1 2 -10 -1 -23 -7 -29z m-40 -54 c21 3 37 2
34 -3 -3 -4 -6 -28 -6 -53 -2 -31 -6 -44 -13 -39 -6 4 -27 12 -46 18 -23 8
-28 12 -15 13 19 2 76 29 65 31 -31 8 -61 11 -90 11 l-35 0 30 25 c25 20 31
21 33 8 3 -13 12 -15 43 -11z m816 -109 c-3 -3 -12 -4 -19 -1 -8 3 -5 6 6 6
11 1 17 -2 13 -5z m-897 -138 c0 -3 -4 -8 -10 -11 -5 -3 -10 -1 -10 4 0 6 5
11 10 11 6 0 10 -2 10 -4z m55 -45 c3 -5 1 -12 -5 -16 -5 -3 -10 1 -10 9 0 18
6 21 15 7z m-45 -167 c0 -8 -4 -12 -10 -9 -5 3 -10 10 -10 16 0 5 5 9 10 9 6
0 10 -7 10 -16z m148 -55 c-3 -8 -7 -3 -11 10 -4 17 -3 21 5 13 5 -5 8 -16 6
-23z m607 21 c-3 -5 -11 -10 -16 -10 -6 0 -7 5 -4 10 3 6 11 10 16 10 6 0 7
-4 4 -10z m-600 -220 c3 -5 -1 -10 -9 -10 -8 0 -18 5 -21 10 -3 6 1 10 9 10 8
0 18 -4 21 -10z m136 -18 c-6 -2 -11 -11 -12 -20 0 -12 -3 -10 -10 6 -12 31
-2 47 18 30 10 -8 11 -14 4 -16z m423 -14 c5 -24 3 -28 -14 -28 -18 0 -20 4
-14 23 4 12 7 28 7 35 0 20 14 0 21 -30z m-478 17 c-25 -19 -43 -19 -43 0 0
10 10 15 31 15 29 -1 30 -1 12 -15z m399 -24 c3 -5 1 -12 -5 -16 -5 -3 -10 1
-10 9 0 18 6 21 15 7z m25 -136 c-14 -16 -40 -20 -40 -6 0 10 17 19 39 20 11
1 11 -2 1 -14z m-97 -32 c-5 -14 -25 -17 -36 -7 -3 4 -2 15 4 25 8 15 12 17
23 7 7 -7 11 -19 9 -25z"/>
<path d="M3975 4703 c0 -227 3 -301 12 -311 17 -17 60 -25 68 -12 9 15 25 2
25 -21 0 -10 7 -19 15 -19 9 0 15 -9 15 -22 0 -20 1 -20 19 -4 18 17 19 16 17
-8 -1 -21 -5 -24 -23 -19 -20 4 -23 1 -23 -21 0 -25 -2 -26 -22 -15 -13 7 -27
18 -33 25 -5 7 -23 15 -40 18 l-30 6 0 -459 0 -459 145 1 145 2 3 52 c2 41 7
53 22 58 19 6 20 22 22 598 l3 592 23 3 c12 2 42 -8 66 -22 85 -50 161 -166
197 -303 27 -102 35 -415 13 -537 -15 -83 -52 -168 -85 -197 -19 -17 -19 -18
-2 -28 17 -9 17 -10 1 -16 -10 -4 -18 -13 -18 -21 0 -7 -6 -11 -14 -8 -8 3
-12 13 -9 25 6 20 5 20 -32 5 -21 -9 -39 -16 -41 -16 -2 0 -4 -9 -4 -21 0 -11
5 -17 10 -14 6 3 10 1 10 -4 0 -6 -4 -11 -10 -11 -18 0 -10 -18 10 -23 15 -4
20 -14 21 -39 3 -78 -2 -73 64 -72 124 1 245 25 245 47 0 4 4 6 9 3 15 -10
104 79 133 131 66 123 86 248 94 586 5 242 4 266 -10 261 -9 -3 -16 -2 -16 4
0 5 6 12 13 15 17 6 11 108 -6 119 -9 6 -9 8 0 8 8 0 9 10 3 33 -4 17 -13 59
-20 92 -26 118 -83 198 -177 246 -45 24 -51 25 -61 10 -10 -14 -11 -14 -11 4
-1 32 -86 46 -309 51 -153 4 -197 2 -203 -8 -7 -10 -9 -10 -9 0 0 9 -28 12
-108 12 l-107 0 0 -297z m467 262 c3 -13 1 -22 -3 -19 -9 5 -13 44 -5 44 2 0
6 -11 8 -25z m-68 -10 c-6 -16 -24 -21 -24 -7 0 11 11 22 21 22 5 0 6 -7 3
-15z m-106 -40 c-3 -3 -9 2 -12 12 -6 14 -5 15 5 6 7 -7 10 -15 7 -18z m412 5
c0 -5 -4 -10 -10 -10 -5 0 -10 5 -10 10 0 6 5 10 10 10 6 0 10 -4 10 -10z
m-473 -22 c-3 -8 -6 -5 -6 6 -1 11 2 17 5 13 3 -3 4 -12 1 -19z m253 2 c0 -5
-7 -10 -15 -10 -8 0 -15 5 -15 10 0 6 7 10 15 10 8 0 15 -4 15 -10z m-163 -82
c-3 -8 -6 -5 -6 6 -1 11 2 17 5 13 3 -3 4 -12 1 -19z m-284 -163 c4 -8 1 -17
-6 -21 -7 -4 -9 -4 -5 1 4 4 3 14 -3 22 -7 8 -8 13 -1 13 5 0 12 -7 15 -15z
m215 -49 c11 -24 7 -36 -10 -36 -5 0 -6 5 -3 10 3 6 1 10 -5 10 -7 0 -9 -8 -5
-20 3 -11 2 -20 -3 -20 -15 0 -21 52 -8 66 16 19 21 17 34 -10z m702 0 c0 -27
-38 -44 -47 -20 -3 8 -9 11 -14 8 -5 -3 -9 -1 -9 3 0 8 42 29 63 32 4 1 7 -10
7 -23z m20 -65 c0 -13 -28 -22 -35 -11 -3 4 1 11 7 13 20 8 28 8 28 -2z m-120
-10 c0 -5 15 -6 34 -1 29 6 34 5 33 -9 -1 -13 -8 -16 -29 -13 -23 4 -27 1 -22
-12 5 -12 2 -15 -10 -10 -8 3 -27 -3 -42 -15 -15 -12 -36 -21 -48 -21 -17 0
-13 7 24 44 45 44 60 53 60 37z m-736 -77 c-17 -25 -54 -33 -54 -11 0 13 51
46 62 40 4 -2 1 -15 -8 -29z m840 -45 c-8 -13 -24 -1 -24 18 0 13 3 13 15 3 8
-7 12 -16 9 -21z m-59 -149 c3 -5 1 -10 -4 -10 -6 0 -11 5 -11 10 0 6 2 10 4
10 3 0 8 -4 11 -10z m-630 -40 c-3 -5 -10 -10 -16 -10 -5 0 -9 5 -9 10 0 6 7
10 16 10 8 0 12 -4 9 -10z m499 -107 c4 -9 1 -21 -5 -27 -9 -8 -10 -7 -6 5 3
9 0 22 -6 28 -8 8 -8 11 0 11 6 0 14 -8 17 -17z m-744 -53 c0 -5 -4 -10 -10
-10 -5 0 -10 5 -10 10 0 6 5 10 10 10 6 0 10 -4 10 -10z m755 -10 c3 -5 1 -10
-4 -10 -6 0 -11 5 -11 10 0 6 2 10 4 10 3 0 8 -4 11 -10z m-15 -30 c0 -5 -7
-10 -16 -10 -8 0 -12 5 -9 10 3 6 10 10 16 10 5 0 9 -4 9 -10z m-540 -136 c0
-8 -4 -12 -10 -9 -5 3 -10 10 -10 16 0 5 5 9 10 9 6 0 10 -7 10 -16z m-60 -24
c0 -5 -7 -10 -15 -10 -8 0 -15 -5 -15 -12 0 -6 -3 -9 -6 -5 -11 10 4 37 21 37
8 0 15 -4 15 -10z m615 0 c-3 -5 -14 -10 -23 -10 -15 0 -15 2 -2 10 20 13 33
13 25 0z m150 -110 c3 -5 1 -10 -4 -10 -6 0 -11 5 -11 10 0 6 2 10 4 10 3 0 8
-4 11 -10z m-781 -125 c3 -8 1 -15 -4 -15 -6 0 -10 4 -10 9 0 5 -8 12 -17 14
-14 4 -13 5 3 6 12 0 24 -6 28 -14z m96 -1 c0 -10 -41 -23 -55 -18 -25 10 1
32 30 26 14 -2 25 -6 25 -8z m31 3 c-1 -4 -1 -17 -1 -29 0 -19 -2 -20 -10 -8
-13 20 -13 53 1 48 6 -2 10 -7 10 -11z m450 -37 c5 0 9 -4 9 -10 0 -5 -11 -10
-25 -10 -14 0 -25 5 -25 10 0 6 5 10 10 10 6 0 11 8 11 18 1 16 2 16 6 0 2
-10 9 -18 14 -18z m-81 -12 c0 -5 -4 -8 -10 -8 -5 0 -10 10 -10 23 0 18 2 19
10 7 5 -8 10 -18 10 -22z m230 -22 c0 -3 -4 -8 -10 -11 -5 -3 -10 -1 -10 4 0
6 5 11 10 11 6 0 10 -2 10 -4z m-80 -41 c0 -3 -10 -19 -22 -35 -16 -23 -25
-27 -35 -19 -21 18 -15 37 15 47 32 12 42 14 42 7z m-126 -69 c-6 -17 -25 -21
-38 -9 -3 4 4 12 16 19 27 14 31 13 22 -10z m-106 -9 c11 -13 2 -39 -13 -39
-12 0 -24 24 -18 39 6 16 18 17 31 0z"/>
<path d="M3975 4339 c6 -28 4 -27 43 -17 18 5 30 13 27 18 -3 5 -12 7 -19 4
-8 -3 -17 -1 -21 5 -12 20 -34 12 -30 -10z"/>
<path d="M4060 4314 c0 -8 5 -12 10 -9 6 4 8 11 5 16 -9 14 -15 11 -15 -7z"/>
<path d="M2970 3211 c-83 -5 -105 -9 -108 -21 -1 -9 9 -20 27 -27 55 -20 53
-47 -24 -332 -18 -66 -32 -86 -51 -70 -7 6 -16 21 -20 32 -3 12 -23 67 -44
122 -45 120 -60 170 -63 209 -2 25 3 30 31 38 56 15 37 50 -23 41 -17 -2 -66
-4 -110 -4 -74 0 -94 -7 -95 -31 0 -4 17 -12 39 -18 39 -10 61 -28 65 -52 1
-7 5 -19 9 -25 5 -7 6 -13 3 -13 -3 0 6 -25 20 -55 13 -31 24 -64 24 -75 0
-10 4 -21 9 -24 5 -3 11 -18 14 -33 6 -34 58 -185 79 -233 9 -19 21 -50 28
-67 7 -18 17 -33 22 -33 9 0 37 59 44 94 2 11 12 38 22 60 11 23 22 57 26 77
3 20 16 55 27 79 11 24 23 55 25 69 3 14 12 49 20 77 8 28 16 61 19 72 7 38
38 73 82 94 23 11 43 23 43 27 0 9 -23 32 -29 29 -4 -1 -53 -4 -111 -7z"/>
<path d="M4393 3203 c-42 -8 -34 -46 12 -54 23 -5 110 -110 131 -159 8 -19 26
-47 40 -61 27 -28 28 -37 25 -196 -1 -100 0 -97 -63 -107 -22 -3 -48 -26 -48
-42 0 -20 26 -24 169 -19 97 2 136 7 142 17 10 16 -4 31 -33 35 -47 6 -82 78
-68 138 1 6 3 39 4 75 2 77 12 95 111 206 39 42 72 80 75 84 3 4 19 13 35 21
21 10 30 21 30 39 0 25 -1 25 -93 25 -51 0 -102 -3 -113 -7 -30 -11 -24 -44
11 -57 23 -7 30 -16 30 -35 0 -15 -4 -26 -10 -26 -5 0 -10 -6 -10 -12 0 -19
-75 -98 -92 -98 -29 0 -88 81 -111 151 -6 19 10 39 33 39 26 0 41 16 34 34 -5
14 -14 16 -48 10 -48 -8 -76 -9 -131 -2 -22 2 -50 3 -62 1z"/>
<path d="M263 3190 c-23 -4 -87 -5 -142 -5 -77 2 -101 -1 -105 -12 -5 -13 30
-33 58 -33 32 0 38 -27 28 -127 -5 -54 -10 -132 -11 -173 -1 -139 -10 -233
-23 -242 -7 -5 -21 -6 -30 -4 -18 4 -45 -19 -31 -27 13 -7 241 -2 249 5 9 9
-14 38 -31 38 -6 0 -19 8 -28 18 -22 24 -30 191 -10 218 14 19 15 19 51 -2 24
-14 50 -44 75 -85 20 -35 51 -87 68 -116 16 -28 36 -56 42 -62 7 -5 42 -11 77
-13 54 -3 65 0 68 14 2 11 -9 24 -30 37 -43 25 -69 52 -99 102 -13 23 -36 56
-51 74 -35 41 -35 51 1 70 66 34 112 145 86 208 -15 37 -75 97 -96 97 -10 0
-20 4 -23 9 -8 13 -46 17 -93 11z m44 -46 c22 -6 49 -39 69 -84 14 -33 8 -77
-18 -118 -31 -50 -61 -65 -114 -59 -25 2 -47 7 -49 9 -7 7 -7 222 0 240 10 27
50 31 112 12z"/>
<path d="M1525 3192 c-43 -7 -84 -24 -106 -43 -13 -12 -31 -26 -40 -33 -8 -6
-30 -33 -48 -59 -33 -49 -51 -123 -44 -183 9 -77 27 -143 49 -181 26 -44 95
-106 131 -117 71 -22 183 -10 233 24 14 10 41 25 62 33 36 15 36 16 40 80 4
78 1 94 -18 101 -25 10 -43 -5 -50 -40 -7 -40 -59 -124 -75 -124 -7 0 -20 -6
-28 -14 -33 -30 -72 -26 -151 13 -46 23 -90 141 -90 238 0 80 24 145 72 195
34 35 48 43 95 49 31 4 63 4 72 -1 9 -4 27 -12 41 -18 25 -9 40 -31 60 -85 12
-33 35 -44 56 -27 12 11 14 27 9 84 -9 96 -10 99 -36 85 -17 -8 -31 -7 -64 6
-41 15 -128 24 -170 17z"/>
<path d="M2131 3191 c-10 -6 -11 -13 -3 -27 8 -15 23 -19 69 -20 93 -1 156
-53 194 -161 27 -77 30 -104 19 -165 -12 -61 -15 -65 -35 -48 -12 10 -15 9
-17 -6 -3 -37 -2 -50 6 -90 6 -34 12 -43 32 -47 13 -2 27 0 30 4 3 5 16 9 30
9 13 0 33 5 44 12 17 11 18 14 4 29 -14 15 -14 21 3 51 14 26 17 54 17 133 -2
126 -2 131 -20 146 -8 6 -14 17 -14 25 0 22 -82 97 -139 128 -42 23 -69 29
-130 32 -42 2 -82 0 -90 -5z"/>
<path d="M4053 3189 c-18 -3 -79 -5 -135 -4 -57 2 -106 1 -110 -1 -16 -10 5
-33 35 -40 54 -11 59 -20 51 -92 -3 -36 -8 -106 -10 -156 -2 -50 -5 -125 -7
-166 -3 -41 -5 -89 -6 -106 -1 -26 -5 -31 -23 -30 -28 3 -60 -12 -53 -23 6
-11 241 -8 252 3 4 4 -2 15 -14 24 -12 10 -31 24 -43 32 -17 13 -20 27 -22
111 -2 106 3 123 35 113 37 -12 71 -44 102 -98 82 -141 98 -167 115 -179 9 -6
44 -12 76 -12 52 0 59 2 59 20 0 12 -14 27 -38 41 -33 18 -107 109 -107 131 0
4 -14 22 -30 40 -17 18 -30 36 -30 41 0 5 18 22 41 36 63 42 98 142 71 206
-13 33 -58 74 -102 93 -49 21 -70 24 -107 16z m53 -52 c38 -19 68 -79 65 -127
-2 -40 -33 -95 -65 -116 -23 -14 -95 -17 -117 -4 -7 5 -11 46 -11 119 -1 90 2
115 16 130 20 22 68 21 112 -2z"/>
<path d="M613 3177 c-9 -15 18 -27 64 -27 23 0 44 -4 47 -9 3 -4 5 -102 5
-217 0 -337 5 -314 -66 -314 -43 0 -56 -13 -42 -41 6 -11 17 -15 36 -12 25 4
221 9 445 12 93 1 108 12 108 79 0 26 -4 53 -8 60 -13 19 -39 5 -63 -34 -29
-47 -66 -64 -141 -64 -35 0 -84 -2 -109 -4 -65 -5 -73 2 -75 76 -1 35 -5 87
-9 116 -9 58 -16 53 80 56 61 2 83 -14 91 -65 7 -44 29 -57 45 -27 18 33 18
226 1 241 -11 9 -17 7 -28 -8 -8 -10 -14 -27 -14 -38 0 -51 -15 -56 -150 -48
-13 1 -15 19 -14 114 2 136 2 139 12 133 4 -2 53 -8 107 -12 55 -3 103 -9 108
-11 4 -2 16 -22 27 -43 23 -45 46 -70 66 -70 11 0 14 17 14 75 0 62 -3 76 -18
84 -25 13 -510 12 -519 -2z"/>
<path d="M3132 3171 c2 -11 17 -17 52 -21 43 -4 50 -8 55 -30 6 -24 5 -415 -1
-475 -3 -29 -5 -30 -55 -33 -49 -3 -53 -5 -53 -28 0 -23 22 -33 55 -24 6 2 89
4 185 5 277 4 329 7 339 19 15 19 17 101 2 125 -13 19 -45 -1 -61 -39 -16 -39
-64 -60 -139 -60 -31 0 -76 -2 -100 -4 -76 -6 -78 -4 -85 87 -4 45 -8 99 -10
119 -5 43 7 48 92 43 59 -3 81 -21 82 -66 0 -15 6 -32 14 -38 26 -22 38 14 44
127 4 90 2 110 -11 121 -22 18 -35 7 -43 -37 -4 -20 -11 -42 -16 -48 -8 -11
-134 -12 -144 -1 -8 7 -6 225 1 237 4 6 9 8 13 6 4 -2 48 -7 97 -11 113 -8
122 -11 131 -38 10 -33 53 -87 70 -87 9 0 14 11 15 33 1 17 2 47 4 66 2 22 -3
39 -16 52 -17 17 -38 18 -269 18 -228 -1 -251 -3 -248 -18z"/>
<path d="M1988 3143 c-29 -8 -48 -19 -48 -28 0 -8 5 -15 10 -15 17 0 11 -23
-14 -49 -76 -84 -72 -279 8 -384 31 -40 120 -105 156 -113 90 -21 104 -21 172
-4 38 10 72 21 76 24 7 8 -28 46 -43 46 -7 0 -18 -6 -24 -14 -37 -45 -157 -14
-210 53 -54 69 -75 128 -75 218 -1 53 3 86 12 94 6 7 12 21 12 30 0 27 25 42
40 24 7 -8 19 -15 28 -15 12 0 14 10 9 58 -10 98 -17 103 -109 75z"/>
<path d="M87 2370 c-10 -4 -13 -69 -13 -322 0 -174 4 -314 8 -312 3 2 9 0 13
-6 3 -5 0 -10 -7 -10 -10 0 -14 -14 -13 -52 l1 -53 65 0 64 1 0 266 c0 146 4
270 9 275 5 4 6 -1 2 -14 -4 -12 -3 -30 2 -40 15 -29 28 -61 72 -183 90 -248
104 -285 111 -295 4 -6 38 -10 76 -10 l68 0 3 40 c3 29 -1 43 -14 52 -11 8
-13 13 -5 13 7 0 9 5 6 10 -3 6 -1 10 4 10 17 0 15 626 -1 632 -7 3 -29 4 -48
2 -19 -1 -44 -3 -56 -3 -16 -1 -21 -8 -21 -31 0 -16 5 -27 10 -23 6 4 7 1 2
-7 -5 -8 -9 -38 -10 -66 -2 -40 1 -51 11 -47 16 6 19 -13 3 -22 -6 -4 -8 -13
-5 -21 3 -8 2 -14 -2 -14 -4 0 -6 -64 -4 -142 2 -79 1 -140 -3 -136 -3 3 -17
34 -30 69 -13 35 -31 87 -42 114 -10 28 -22 53 -28 57 -5 4 -7 8 -3 8 7 0 -33
118 -50 150 -5 8 -15 36 -22 62 -8 26 -20 50 -28 53 -8 3 -10 0 -6 -7 5 -7 3
-8 -7 -3 -15 10 -91 13 -112 5z m78 -169 c-3 -6 -14 -11 -23 -11 -15 1 -15 2
2 15 21 16 32 13 21 -4z m-59 -28 c-10 -10 -19 5 -10 18 6 11 8 11 12 0 2 -7
1 -15 -2 -18z m179 -61 c-3 -3 -11 0 -18 7 -9 10 -8 11 6 5 10 -3 15 -9 12
-12z m-18 -24 c-18 -12 -23 -10 -23 11 0 15 3 17 18 8 13 -8 14 -13 5 -19z
m11 -53 c-3 -3 -9 2 -12 12 -6 14 -5 15 5 6 7 -7 10 -15 7 -18z m-88 5 c0 -5
-2 -10 -4 -10 -3 0 -8 5 -11 10 -3 6 -1 10 4 10 6 0 11 -4 11 -10z m-25 -229
c3 -5 2 -12 -3 -15 -5 -3 -9 1 -9 9 0 17 3 19 12 6z m365 -17 c0 -8 -5 -12
-10 -9 -6 4 -8 11 -5 16 9 14 15 11 15 -7z m-408 -76 c-7 -7 -12 -8 -12 -2 0
14 12 26 19 19 2 -3 -1 -11 -7 -17z m338 -18 c0 -5 -7 -7 -15 -4 -8 4 -15 8
-15 10 0 2 7 4 15 4 8 0 15 -4 15 -10z"/>
<path d="M780 2372 c-6 -2 -10 -54 -10 -129 0 -124 0 -124 22 -117 20 6 21 5
9 -9 -7 -9 -17 -14 -22 -11 -21 13 -7 -19 19 -41 15 -13 21 -25 14 -25 -7 0
-10 -5 -6 -11 4 -8 0 -9 -15 -4 -21 6 -21 6 -20 -203 l0 -208 112 0 c78 1 112
5 112 13 0 6 4 15 9 20 5 4 7 -1 4 -13 -5 -20 -2 -20 71 -19 42 1 79 3 84 4 4
0 7 28 7 61 l0 60 -129 0 -129 0 0 105 0 105 81 1 c45 1 97 1 115 1 17 -1 32
2 33 6 4 31 5 89 1 100 -6 17 -152 17 -152 0 0 -9 -3 -9 -12 0 -7 7 -24 12
-40 12 -26 0 -27 1 -24 50 3 53 -5 77 -23 66 -6 -4 -1 8 11 26 l22 33 116 0
115 0 5 53 c7 63 -1 82 -27 66 -14 -8 -21 -8 -29 1 -7 6 -38 11 -75 10 -50 -1
-63 -4 -61 -16 2 -12 0 -12 -10 1 -10 11 -34 15 -91 15 -42 0 -82 -1 -87 -3z
m90 -191 c0 -4 -7 -8 -15 -8 -16 0 -20 9 -9 20 8 8 24 -1 24 -12z m160 -136
c0 -8 -2 -15 -4 -15 -2 0 -6 7 -10 15 -3 8 -1 15 4 15 6 0 10 -7 10 -15z m-85
-13 c-3 -3 -11 0 -18 7 -9 10 -8 11 6 5 10 -3 15 -9 12 -12z m45 -8 c0 -8 -5
-12 -10 -9 -6 4 -8 11 -5 16 9 14 15 11 15 -7z m-82 -68 c-7 -8 -15 -12 -17
-11 -5 6 10 25 20 25 5 0 4 -6 -3 -14z m-97 -129 c-10 -9 -11 -8 -5 6 3 10 9
15 12 12 3 -3 0 -11 -7 -18z m65 -106 c-3 -5 -15 -7 -26 -4 -28 7 -25 13 6 13
14 0 23 -4 20 -9z m208 -6 c3 -8 1 -15 -4 -15 -6 0 -10 7 -10 15 0 8 2 15 4
15 2 0 6 -7 10 -15z m-74 1 c0 -3 -4 -8 -10 -11 -5 -3 -10 -1 -10 4 0 6 5 11
10 11 6 0 10 -2 10 -4z m96 -61 c-14 -14 -16 -14 -16 -2 0 9 6 17 13 20 19 7
21 -1 3 -18z"/>
<path d="M1394 2371 c-2 -2 -4 -31 -4 -63 l0 -58 80 0 c74 0 80 -2 80 -20 0
-12 6 -20 13 -19 6 1 23 -2 36 -8 20 -8 21 -11 8 -16 -10 -4 -17 -2 -17 2 0 5
-8 7 -18 4 -17 -4 -18 -18 -19 -168 0 -119 3 -163 11 -158 7 4 6 1 -1 -8 -9
-11 -12 -51 -10 -130 l2 -114 65 -1 c36 0 67 3 70 7 3 4 4 99 3 211 -2 112 -3
208 -3 213 0 6 1 53 2 105 l3 95 80 3 81 3 0 59 c0 33 -4 61 -8 61 -4 1 -14 2
-20 3 -7 1 -24 -5 -38 -14 -15 -9 -21 -10 -17 -2 5 6 5 13 0 13 -25 4 -375 3
-379 0z m236 -221 c0 -5 -5 -10 -11 -10 -5 0 -7 5 -4 10 3 6 8 10 11 10 2 0 4
-4 4 -10z m16 -71 c0 -24 -5 -24 -22 -1 -18 24 -17 31 4 25 10 -2 18 -13 18
-24z m34 5 c0 -8 -4 -12 -10 -9 -5 3 -10 13 -10 21 0 8 5 12 10 9 6 -3 10 -13
10 -21z m-22 -53 c-7 -11 -16 -17 -22 -14 -5 3 -1 12 9 20 25 18 27 17 13 -6z
m-68 -65 c0 -3 -4 -8 -10 -11 -5 -3 -10 -1 -10 4 0 6 5 11 10 11 6 0 10 -2 10
-4z m55 -46 c3 -6 -1 -7 -9 -4 -18 7 -21 14 -7 14 6 0 13 -4 16 -10z m-51 -26
c3 -8 2 -12 -4 -9 -6 3 -10 10 -10 16 0 14 7 11 14 -7z m28 -6 c-7 -7 -12 -8
-12 -2 0 6 3 14 7 17 3 4 9 5 12 2 2 -3 -1 -11 -7 -17z m-42 -83 c0 -8 -4 -15
-10 -15 -5 0 -7 7 -4 15 4 8 8 15 10 15 2 0 4 -7 4 -15z m70 -12 c0 -10 -4
-14 -8 -8 -4 6 -11 13 -16 18 -5 4 -2 7 7 7 10 0 17 -8 17 -17z m20 -77 c0 -3
-4 -8 -10 -11 -5 -3 -10 -1 -10 4 0 6 5 11 10 11 6 0 10 -2 10 -4z m0 -86 c0
-5 -2 -10 -4 -10 -3 0 -8 5 -11 10 -3 6 -1 10 4 10 6 0 11 -4 11 -10z"/>
<path d="M2070 2368 c0 -5 5 -8 11 -8 5 0 8 -4 4 -10 -8 -12 14 -138 26 -145
4 -3 6 -12 2 -20 -3 -9 0 -22 7 -30 10 -12 10 -15 0 -15 -9 0 -9 -6 2 -22 8
-13 14 -35 14 -50 -2 -32 -2 -32 25 -18 15 8 19 7 19 -4 0 -7 -8 -13 -17 -12
-12 1 -17 -5 -16 -19 4 -29 12 -86 18 -120 12 -62 37 -191 42 -215 3 -14 5
-33 5 -42 0 -10 2 -19 6 -19 28 -5 172 -5 172 0 0 3 7 44 14 91 16 94 18 104
42 240 9 52 17 101 17 108 1 28 15 -6 21 -48 3 -25 19 -115 36 -200 16 -85 30
-162 30 -171 0 -9 6 -19 13 -21 10 -4 140 -3 158 1 3 0 11 29 17 64 6 34 21
113 32 174 12 62 23 125 26 140 2 16 13 75 24 133 29 157 40 222 40 235 0 17
-129 12 -141 -6 -8 -12 -14 -69 -10 -92 1 -4 -3 -17 -9 -27 -8 -15 -8 -20 2
-20 9 0 10 -3 2 -8 -6 -4 -16 -47 -23 -97 -6 -49 -13 -101 -15 -115 -2 -14
-10 -65 -17 -115 l-12 -90 -34 180 c-19 99 -36 190 -39 203 -2 12 -12 22 -22
22 -14 0 -15 2 -2 10 12 8 13 19 2 81 -7 40 -15 75 -18 78 -3 3 -29 5 -59 6
-60 0 -57 4 -71 -90 -3 -22 -7 -51 -10 -65 -2 -14 -7 -41 -9 -60 -3 -19 -8
-46 -11 -60 -3 -14 -7 -34 -9 -45 -2 -11 -11 -65 -21 -120 -10 -55 -17 -104
-15 -110 1 -5 -1 -6 -5 -2 -4 4 -9 13 -10 20 -9 51 -37 226 -39 242 -1 11 -3
20 -5 20 -1 0 -3 17 -6 38 -5 53 -34 220 -40 228 -7 12 -86 2 -96 -13 -8 -10
-9 -9 -5 3 4 13 0 16 -19 15 -13 0 -24 -4 -24 -8z m710 -228 c-8 -5 -19 -10
-25 -10 -5 0 -3 5 5 10 8 5 20 10 25 10 6 0 3 -5 -5 -10z m-585 -28 c-3 -3
-11 0 -18 7 -9 10 -8 11 6 5 10 -3 15 -9 12 -12z m-24 -25 c-13 -13 -26 -3
-16 12 3 6 11 8 17 5 6 -4 6 -10 -1 -17z m94 -127 c3 -5 1 -10 -4 -10 -6 0
-11 5 -11 10 0 6 2 10 4 10 3 0 8 -4 11 -10z m-60 -80 c3 -6 -1 -7 -9 -4 -18
7 -21 14 -7 14 6 0 13 -4 16 -10z m32 -172 c-3 -8 -6 -5 -6 6 -1 11 2 17 5 13
3 -3 4 -12 1 -19z m126 -5 c-7 -2 -19 -2 -25 0 -7 3 -2 5 12 5 14 0 19 -2 13
-5z m-99 -38 c-7 -16 -24 -21 -24 -6 0 8 7 13 27 20 1 1 0 -6 -3 -14z"/>
<path d="M3269 2370 c-83 -14 -133 -53 -164 -128 -23 -54 -38 -220 -23 -239 7
-9 7 -13 0 -13 -6 0 -9 -22 -7 -56 11 -172 30 -234 86 -276 40 -31 57 -36 127
-43 41 -4 54 -2 59 10 4 12 9 13 19 4 17 -14 84 9 77 26 -2 7 7 15 20 19 26 6
58 67 73 141 12 61 12 265 -1 265 -6 0 -7 3 0 8 6 4 10 19 11 35 0 21 -5 27
-20 27 -20 1 -20 1 -3 14 18 14 16 57 -5 101 -20 41 -89 93 -131 100 -23 4
-49 8 -57 9 -8 2 -36 0 -61 -4z m75 -110 c14 -5 34 -26 44 -47 17 -34 19 -58
17 -223 -1 -107 -6 -196 -13 -211 -11 -27 -72 -78 -72 -61 0 6 -8 8 -18 5 -29
-7 -68 32 -80 79 -14 57 -15 343 0 388 6 19 17 42 24 51 8 9 12 18 10 20 -9 9
64 8 88 -1z m152 -150 c-49 -25 -54 -25 -30 -1 10 11 30 20 44 20 22 0 20 -2
-14 -19z m-336 -20 c-8 -5 -17 -7 -19 -4 -3 3 1 9 9 14 8 5 17 7 19 4 3 -3 -1
-9 -9 -14z m3 -47 c5 -7 12 -11 18 -8 5 4 9 1 9 -4 0 -6 -7 -11 -16 -11 -8 0
-12 -5 -8 -11 3 -6 -8 -3 -25 5 -32 17 -43 33 -16 22 8 -3 15 -1 15 4 0 10
-13 14 -40 11 -12 -2 -13 0 -1 7 17 12 53 3 64 -15z m47 -323 c0 -5 -5 -10
-11 -10 -5 0 -7 5 -4 10 3 6 8 10 11 10 2 0 4 -4 4 -10z m141 -23 c-10 -9 -11
-8 -5 6 3 10 9 15 12 12 3 -3 0 -11 -7 -18z"/>
<path d="M3782 2370 c-4 -3 -7 -68 -7 -145 l0 -140 33 0 c22 0 34 -5 38 -18 4
-12 11 -16 22 -12 11 4 8 -3 -7 -16 -16 -15 -26 -19 -29 -11 -2 7 -10 12 -18
12 -8 0 -14 4 -14 9 0 6 9 8 20 6 11 -2 19 -1 16 3 -2 4 -17 9 -33 10 l-28 2
0 -228 1 -227 54 -1 c91 -3 85 -15 84 171 0 129 2 165 12 161 7 -3 15 2 18 10
3 8 11 14 18 14 9 0 8 -3 -2 -10 -13 -9 -13 -10 0 -11 131 -7 141 -22 146
-196 2 -68 5 -127 8 -132 3 -5 41 -8 85 -8 l80 1 -15 27 c-8 16 -14 35 -14 44
0 8 -6 15 -12 15 -10 0 -10 2 -1 8 15 10 11 192 -5 233 -11 29 -57 63 -72 54
-6 -3 -10 -1 -10 5 0 6 12 16 26 22 14 7 34 28 44 48 19 38 35 114 22 106 -4
-2 -14 -1 -21 4 -10 6 -8 9 8 15 17 5 20 11 15 33 -29 119 -81 144 -307 146
-81 1 -151 -1 -155 -4z m272 -112 c14 -6 28 -19 31 -30 4 -10 10 -18 14 -18 6
0 7 -18 2 -91 -2 -30 -35 -59 -71 -64 -43 -5 -91 -7 -107 -6 -9 1 -12 18 -11
57 2 39 -2 58 -12 65 -11 8 -12 12 -2 16 7 2 12 22 12 44 l0 39 60 0 c32 0 70
-5 84 -12z m151 -98 c-3 -5 2 -11 12 -11 16 -1 16 -2 -2 -6 -10 -3 -31 -12
-45 -21 -24 -15 -23 -14 4 16 29 32 43 41 31 22z m-350 -40 c-3 -5 -14 -10
-23 -10 -15 0 -15 2 -2 10 20 13 33 13 25 0z m185 -96 c0 -8 -5 -12 -10 -9 -6
4 -8 11 -5 16 9 14 15 11 15 -7z m-133 -300 c-3 -3 -12 -4 -19 -1 -8 3 -5 6 6
6 11 1 17 -2 13 -5z m251 -64 c-14 -22 -24 -19 -15 5 4 8 11 15 17 15 6 0 6
-7 -2 -20z"/>
<path d="M4498 2369 c-12 -7 -15 -220 -4 -237 3 -6 2 -13 -3 -16 -14 -9 4 -61
20 -58 11 2 11 0 -1 -10 -19 -16 -19 -19 -21 -110 -1 -105 -1 -110 14 -102 7
5 7 1 -2 -10 -19 -23 -20 -78 -1 -94 8 -8 9 -11 3 -7 -13 6 -14 3 -16 -72 l0
-38 69 -1 69 -1 0 119 c-1 85 3 122 12 130 7 5 10 15 6 21 -3 5 2 16 12 24 11
7 13 13 7 13 -7 0 -12 5 -12 12 0 28 40 -32 75 -112 20 -47 40 -87 45 -90 4
-3 10 -16 12 -30 2 -14 9 -24 15 -23 7 2 10 -4 7 -11 -3 -8 -1 -23 5 -34 9
-17 21 -20 86 -19 41 0 75 2 75 4 0 10 -34 69 -44 75 -6 4 -8 8 -4 8 6 0 -18
56 -102 236 -21 45 -41 91 -45 104 -7 22 6 58 31 90 19 24 144 231 144 239 0
12 -120 4 -137 -10 -15 -12 -16 -12 -9 6 8 22 -2 15 -18 -14 -31 -54 -131
-237 -135 -245 -2 -5 1 -6 7 -2 6 3 13 2 17 -4 3 -5 0 -10 -7 -10 -10 0 -9 -3
2 -10 8 -5 12 -12 8 -15 -3 -3 -13 1 -22 10 -11 11 -16 12 -16 4 0 -18 -10 -5
-15 20 -2 11 -7 26 -11 33 -4 6 -3 9 2 5 11 -6 11 220 0 231 -9 9 -104 9 -118
1z m108 -174 c-21 -16 -32 -13 -21 4 3 6 14 11 23 11 15 -1 15 -2 -2 -15z
m-52 -20 c-4 -8 -7 -15 -9 -15 -2 0 -5 7 -9 15 -3 9 0 15 9 15 9 0 12 -6 9
-15z m159 -71 c9 -9 -4 -35 -14 -28 -5 3 -9 12 -9 20 0 14 12 19 23 8z m-123
-58 c0 -3 -4 -8 -10 -11 -5 -3 -10 -1 -10 4 0 6 5 11 10 11 6 0 10 -2 10 -4z
m45 -6 c3 -5 1 -10 -4 -10 -6 0 -11 5 -11 10 0 6 2 10 4 10 3 0 8 -4 11 -10z
m50 -28 c-8 -8 -25 10 -19 20 4 6 9 5 15 -3 4 -7 6 -15 4 -17z m59 -130 c3 -5
-1 -9 -9 -9 -8 0 -15 4 -15 9 0 4 4 8 9 8 6 0 12 -4 15 -8z m-174 -152 c0 -5
-10 -10 -22 -9 -22 0 -22 1 -3 9 11 5 21 9 23 9 1 1 2 -3 2 -9z m330 -30 c0
-5 -7 -7 -15 -4 -8 4 -15 8 -15 10 0 2 7 4 15 4 8 0 15 -4 15 -10z"/>
<path d="M1136 1150 c-71 -5 -91 -9 -102 -25 -18 -24 -18 -44 0 -51 27 -10 71
-11 90 -2 13 7 23 6 34 -6 13 -13 16 -49 17 -215 3 -234 2 -236 -88 -236 -42
0 -52 -3 -60 -23 -7 -15 -7 -26 0 -33 5 -5 81 -11 173 -12 l164 -2 15 27 c13
22 13 29 2 42 -11 13 -24 15 -61 10 -75 -10 -75 -8 -74 218 1 221 3 228 71
228 22 0 47 6 57 13 15 11 16 17 6 39 -12 25 -16 26 -74 24 -33 -1 -65 0 -71
4 -5 3 -50 3 -99 0z m49 -70 c3 -5 1 -10 -4 -10 -6 0 -11 5 -11 10 0 6 2 10 4
10 3 0 8 -4 11 -10z"/>
<path d="M90 1140 c-47 -7 -52 -38 -10 -62 32 -18 34 -29 32 -143 0 -27 -1
-97 -2 -155 -2 -149 -3 -155 -51 -170 -47 -16 -57 -27 -38 -45 20 -18 207 -5
220 16 13 22 6 32 -40 58 l-43 24 6 75 c3 44 11 79 18 84 7 4 39 8 70 8 52 0
59 -3 75 -27 11 -17 19 -49 20 -84 2 -83 20 -138 46 -148 63 -23 77 -22 107 7
31 32 32 66 1 90 -13 10 -18 9 -33 -10 -18 -22 -19 -22 -33 -4 -8 10 -17 39
-20 65 -4 25 -10 56 -16 69 -16 40 -10 66 26 106 31 33 36 44 34 85 -1 25 -5
51 -8 56 -3 6 -6 12 -6 15 0 3 -13 24 -28 48 -20 31 -34 42 -55 44 -79 4 -241
3 -272 -2z m290 -97 c25 -32 25 -46 -1 -86 -17 -25 -35 -37 -76 -49 -32 -9
-56 -12 -59 -6 -4 5 -17 7 -31 3 -41 -10 -51 8 -47 82 2 37 8 71 14 77 15 15
119 24 153 13 15 -5 36 -20 47 -34z"/>
<path d="M1865 1143 c-11 -2 -37 -11 -57 -20 -71 -30 -110 -156 -103 -327 2
-43 8 -82 13 -85 5 -3 16 -20 25 -37 9 -17 28 -42 42 -55 15 -13 34 -32 43
-41 27 -29 74 -32 128 -8 59 26 100 63 109 99 4 14 13 33 20 41 19 21 22 69 6
98 -9 17 -20 22 -38 20 -21 -2 -26 -9 -29 -38 -8 -73 -31 -115 -77 -135 -49
-22 -113 -23 -132 -4 -6 8 -19 32 -28 55 -19 51 -21 225 -2 269 7 17 15 37 18
46 3 9 26 25 51 34 44 17 46 17 88 -4 31 -15 51 -34 70 -69 15 -27 25 -52 21
-55 -3 -4 6 -12 21 -18 14 -7 29 -9 33 -5 13 12 15 189 2 212 -15 29 -46 37
-58 16 -8 -13 -15 -14 -47 -4 -51 15 -94 20 -119 15z"/>
<path d="M642 1133 c-57 -12 -62 -15 -62 -33 0 -11 6 -20 14 -20 26 0 66 -26
55 -37 -10 -10 -11 -73 -5 -273 3 -116 -4 -150 -28 -150 -20 0 -47 -35 -40
-53 5 -13 18 -15 72 -12 37 2 79 4 93 5 36 0 45 27 18 51 -12 11 -28 19 -34
19 -20 0 -24 22 -19 94 3 48 0 66 -9 66 -6 0 -4 5 7 11 10 6 49 12 86 14 108
4 173 55 185 147 6 40 3 49 -27 89 -45 58 -105 81 -216 83 -45 0 -85 0 -90 -1z
m197 -69 c45 -10 82 -83 67 -132 -8 -25 -67 -47 -133 -51 -45 -2 -53 1 -64 21
-7 13 -14 53 -14 91 -2 65 -1 68 24 73 14 3 31 7 36 8 11 3 45 -1 84 -10z"/>
<path d="M3756 1105 c-9 -19 -14 -46 -12 -61 7 -38 -8 -61 -47 -68 -18 -3 -42
-13 -53 -21 -18 -15 -18 -16 9 -40 15 -14 37 -25 48 -25 11 0 29 -4 39 -10 16
-8 17 -15 9 -45 -6 -19 -7 -39 -4 -44 3 -5 1 -12 -4 -15 -13 -8 -7 -105 8
-136 47 -98 61 -110 134 -104 89 7 117 27 141 101 10 33 16 68 13 77 -16 40
-100 -6 -95 -52 3 -21 -2 -27 -30 -35 -25 -8 -36 -7 -50 7 -23 20 -39 90 -41
177 -2 85 14 102 99 103 113 3 101 56 -12 56 -77 0 -95 17 -96 93 0 31 -3 61
-7 67 -12 20 -33 10 -49 -25z"/>
<path d="M2168 1123 c-36 -9 -12 -53 28 -53 16 0 26 -9 34 -32 7 -18 12 -37
11 -42 -1 -5 -2 -71 -1 -145 2 -196 0 -224 -12 -239 -6 -7 -17 -11 -24 -8 -16
6 -44 -19 -44 -39 0 -16 13 -21 68 -24 34 -2 42 1 42 15 0 17 1 17 13 1 11
-16 16 -16 51 -4 25 8 35 16 28 21 -18 11 -14 26 5 19 10 -4 14 -2 10 5 -4 6
-20 13 -36 17 -36 8 -53 26 -41 44 4 8 6 39 3 70 -4 41 -1 66 11 89 24 46 77
82 126 86 35 3 44 -1 58 -22 22 -34 35 -244 15 -263 -4 -4 -21 -10 -38 -12
-26 -3 -30 -8 -30 -33 0 -21 4 -28 15 -25 8 2 52 3 98 4 45 0 85 4 88 9 9 14
-6 48 -22 48 -8 0 -23 9 -33 19 -17 17 -19 34 -19 133 1 133 -9 157 -78 190
-52 24 -93 18 -143 -20 -33 -24 -34 -25 -47 -7 -13 18 -18 66 -14 147 1 27 -4
39 -19 47 -20 11 -70 13 -103 4z"/>
<path d="M2798 962 c-40 -13 -50 -21 -63 -54 -13 -33 -13 -44 -3 -66 25 -52
112 -32 102 23 -6 33 20 55 66 55 31 0 43 -6 65 -31 39 -47 30 -69 -35 -90
-30 -10 -77 -19 -105 -20 -63 -3 -88 -14 -108 -48 -36 -61 -16 -140 40 -162
57 -22 143 -15 205 16 24 12 30 11 52 -6 28 -22 45 -24 81 -7 28 12 44 53 27
70 -6 6 -17 2 -31 -13 -34 -37 -38 -23 -45 147 -5 123 -17 152 -76 182 -51 26
-104 27 -172 4z m200 -234 c1 -45 -39 -104 -80 -116 -29 -9 -47 -10 -109 -4
-18 2 -59 38 -59 53 0 5 13 23 30 39 21 20 43 30 77 34 26 4 66 12 88 19 22 7
43 12 46 11 3 -2 6 -18 7 -36z"/>
<path d="M4225 963 c-91 -27 -127 -83 -129 -198 -2 -120 80 -214 190 -221 88
-5 208 65 190 111 -3 8 -16 12 -31 11 -23 -3 -40 -14 -83 -53 -17 -16 -93 -8
-134 13 -29 15 -68 68 -68 91 0 20 55 29 177 27 107 -1 115 0 129 21 15 22 10
80 -7 91 -5 3 -9 14 -9 24 0 21 -45 57 -102 83 -43 20 -58 20 -123 0z m147
-78 c27 -13 37 -25 40 -47 3 -16 0 -31 -5 -35 -17 -10 -182 -12 -214 -2 -32
10 -42 31 -25 54 4 6 29 22 56 36 53 29 78 28 148 -6z"/>
<path d="M4822 955 c-23 -7 -54 -20 -67 -29 -24 -16 -26 -15 -47 9 -19 22 -30
25 -77 24 -74 -1 -86 -5 -88 -29 -2 -22 26 -34 70 -32 38 3 44 -18 43 -156 -1
-100 -3 -115 -20 -128 -11 -8 -32 -14 -47 -14 -27 0 -55 -23 -45 -38 2 -4 55
-9 116 -10 63 -1 109 2 106 7 -8 13 18 21 34 11 17 -11 30 -4 30 16 0 8 -4 12
-10 9 -5 -3 -10 1 -10 9 0 12 -10 16 -40 16 -43 0 -45 2 -53 85 -9 80 63 183
133 191 24 3 27 0 27 -26 0 -40 19 -60 58 -60 45 0 62 33 44 85 -26 70 -70 87
-157 60z"/>
<path d="M3170 940 c-37 -9 -30 -33 12 -45 20 -5 40 -14 45 -18 8 -9 12 -101
12 -297 0 -145 1 -143 -47 -158 -23 -8 -42 -18 -42 -23 0 -16 28 -22 118 -22
80 -1 87 0 87 18 0 14 -10 23 -32 29 -38 12 -52 43 -45 99 5 47 22 55 71 33
25 -12 52 -16 82 -12 24 2 48 5 52 5 11 1 69 63 85 90 30 52 32 128 5 201 -3
8 -7 21 -9 28 -4 22 -26 43 -65 63 -39 19 -105 26 -95 10 4 -5 -2 -7 -12 -4
-11 2 -35 -2 -55 -11 -33 -13 -38 -13 -53 2 -17 17 -72 23 -114 12z m251 -47
c20 0 46 -7 60 -18 34 -25 74 -117 61 -142 -5 -10 -7 -23 -5 -30 6 -17 -43
-88 -72 -103 -37 -20 -112 -4 -146 30 -27 27 -29 32 -26 113 2 80 3 86 37 124
19 22 39 36 45 32 6 -4 26 -7 46 -6z"/>
</g>
</svg>
